<svg xmlns="http://www.w3.org/2000/svg" viewBox="0 0 512 512" role="img" aria-label="Leaf logo">
  <rect width="512" height="512" rx="112" fill="#16A34A"/>
  <g fill="#F0FDF4">
    <path d="M256 88c-71 16-126 52-163 107-35 53-46 117-33 192 74 13 139 2 192-33 55-37 91-92 107-163-29 20-59 43-89 72-39 37-66 77-82 122 6-50 30-101 73-151 27-33 58-63 93-90-34-23-66-58-98-56z"/>
    <path d="M180 362c20 22 44 39 72 50 8 3 17-1 20-9s-1-17-9-20c-24-10-45-25-62-44-6-6-16-7-23-1-6 6-7 17 2 24z"/>
  </g>
</svg>
